<?xml version="1.0" encoding="utf-8"?>
<!-- Generator: Adobe Illustrator 27.6.1, SVG Export Plug-In . SVG Version: 6.00 Build 0)  -->
<svg version="1.1" id="Слой_1" xmlns="http://www.w3.org/2000/svg" xmlns:xlink="http://www.w3.org/1999/xlink" x="0px" y="0px"
	 viewBox="0 0 1080 1080" style="enable-background:new 0 0 1080 1080;" xml:space="preserve">
<style type="text/css">
	.st0{fill:url(#SVGID_1_);}
	.st1{fill:url(#SVGID_00000171721383091925784360000003178241954071297695_);}
	.st2{fill:url(#SVGID_00000083060643954877380880000006162012046959611041_);}
	.st3{fill:url(#SVGID_00000102511115745663714960000010053487174917777289_);}
	.st4{fill:url(#SVGID_00000153686215540532389600000007662290202818899894_);}
	.st5{fill:url(#SVGID_00000139279189963396367140000012698549160448663996_);}
	.st6{fill:url(#SVGID_00000042726929013578200460000017676741311950690945_);}
	.st7{fill:url(#SVGID_00000124876184430157032170000013978145160435926927_);}
	.st8{fill:url(#SVGID_00000140698345232159625960000009792107250835520696_);}
	.st9{fill:url(#SVGID_00000017474682692895341050000017480064505120957577_);}
	.st10{fill:url(#SVGID_00000173150579345495492970000007265615128102084507_);}
	.st11{fill:url(#SVGID_00000007405937524774618620000011662527566153356982_);}
	.st12{fill:url(#SVGID_00000011753168165648168760000016366903466693237182_);}
	.st13{fill:url(#SVGID_00000084523613737437365300000013948986829655617418_);}
	.st14{fill:url(#SVGID_00000152221701743717049130000014970242319607768726_);}
</style>
<g>
	<g>
		<g>
			<path d="M165.87,522.13H90.74v91H58.63V493.58h107.24V522.13z"/>
			<path d="M189.42,573.34l3.57-79.76h108.85v119.55h-32.12v-91h-46.75l-2.32,54.78c-1.43,24.98-10.17,38.36-37.83,38.36
				c-5.35,0-11.24-0.36-15.52-1.78v-27.3c2.85,0.36,7.14,0.54,9.81,0.54C186.57,586.72,189.07,582.09,189.42,573.34z"/>
		</g>
	</g>
	<g>
		<linearGradient id="SVGID_1_" gradientUnits="userSpaceOnUse" x1="573.207" y1="600.0154" x2="847.2429" y2="874.0513">
			<stop  offset="0.0992" style="stop-color:#002F31"/>
			<stop  offset="1" style="stop-color:#000000"/>
		</linearGradient>
		<path class="st0" d="M607.93,665.79v-28.51H593.4v-8.94h39.19v8.94h-14.59v28.51H607.93z"/>
		
			<linearGradient id="SVGID_00000156559816025413126510000012291628613031792520_" gradientUnits="userSpaceOnUse" x1="596.4301" y1="576.7922" x2="870.4661" y2="850.8281">
			<stop  offset="0.0992" style="stop-color:#002F31"/>
			<stop  offset="1" style="stop-color:#000000"/>
		</linearGradient>
		<path style="fill:url(#SVGID_00000156559816025413126510000012291628613031792520_);" d="M684.62,637.28h-25.77v5.59h20.18v8.94
			h-20.18v5.03h25.77v8.94h-35.83v-37.45h35.83V637.28z"/>
		
			<linearGradient id="SVGID_00000062193147005317573400000013452252693917689479_" gradientUnits="userSpaceOnUse" x1="623.0208" y1="550.2015" x2="897.0568" y2="824.2374">
			<stop  offset="0.0992" style="stop-color:#002F31"/>
			<stop  offset="1" style="stop-color:#000000"/>
		</linearGradient>
		<path style="fill:url(#SVGID_00000062193147005317573400000013452252693917689479_);" d="M714.02,647.07l-13.81-16.49v-2.24h9.89
			l9.78,11.74l9.84-11.74h9.84v2.24l-13.81,16.49l13.81,16.49v2.24h-9.84l-9.84-11.68l-9.78,11.68h-9.89v-2.24L714.02,647.07z"/>
		
			<linearGradient id="SVGID_00000182514864356477982560000003842726255639076776_" gradientUnits="userSpaceOnUse" x1="653.2731" y1="519.9492" x2="927.3091" y2="793.9851">
			<stop  offset="0.0992" style="stop-color:#002F31"/>
			<stop  offset="1" style="stop-color:#000000"/>
		</linearGradient>
		<path style="fill:url(#SVGID_00000182514864356477982560000003842726255639076776_);" d="M768.06,665.79v-28.51h-14.53v-8.94
			h39.19v8.94h-14.59v28.51H768.06z"/>
		
			<linearGradient id="SVGID_00000096024592994157946340000011532410871929261708_" gradientUnits="userSpaceOnUse" x1="675.5112" y1="497.7111" x2="949.5472" y2="771.747">
			<stop  offset="0.0992" style="stop-color:#002F31"/>
			<stop  offset="1" style="stop-color:#000000"/>
		</linearGradient>
		<path style="fill:url(#SVGID_00000096024592994157946340000011532410871929261708_);" d="M846.93,642.87
			c0,7.38-3.24,13.42-14.87,13.42h-1.56c-4.03,0-7.88,0-11.52-0.56v10.06h-10.06v-37.45c6.37-0.73,13.7-1.12,20.46-1.12h1.57
			c12.52,0,15.99,6.04,15.99,13.42V642.87z M836.87,641.76c0-3.3,0-5.59-7.55-5.59c-2.35,0-6.65,0.17-10.34,0.5v10.17
			c3.47,0.45,6.48,0.5,9.95,0.5C836.87,647.35,836.87,645,836.87,641.76z"/>
		
			<linearGradient id="SVGID_00000062895646281788125020000000665757006646240142_" gradientUnits="userSpaceOnUse" x1="701.8677" y1="471.3546" x2="975.9036" y2="745.3905">
			<stop  offset="0.0992" style="stop-color:#002F31"/>
			<stop  offset="1" style="stop-color:#000000"/>
		</linearGradient>
		<path style="fill:url(#SVGID_00000062895646281788125020000000665757006646240142_);" d="M899.81,648.52
			c0,10.12-4.42,18.39-20.24,18.39h-2.01c-5.03,0-9.84-0.67-14.42-1.79v-9.17c5.14,1.51,10.9,2.12,14.7,2.12
			c8.5,0,10.79-2.46,11.4-6.26h-20.24v-8.94h20.35c-0.5-4.08-2.63-6.76-11.52-6.76c-3.8,0-9.56,0.56-14.7,2.07v-9.11
			c4.58-1.17,9.39-1.84,14.42-1.84h2.01c15.82,0,20.24,8.27,20.24,18.39V648.52z"/>
		
			<linearGradient id="SVGID_00000020362613690363566390000011942195540082726844_" gradientUnits="userSpaceOnUse" x1="732.1376" y1="441.0847" x2="1006.1735" y2="715.1207">
			<stop  offset="0.0992" style="stop-color:#002F31"/>
			<stop  offset="1" style="stop-color:#000000"/>
		</linearGradient>
		<path style="fill:url(#SVGID_00000020362613690363566390000011942195540082726844_);" d="M947.93,628.34h10.06v37.45h-10.06
			v-24.04l-19.62,24.04h-10.06v-37.45h10.06v24.04L947.93,628.34z M946.48,616.88v1.23c0,3.47-1.73,6.43-8.16,6.43h-0.45
			c-6.43,0-8.16-2.96-8.16-6.43v-1.23h5.03v1.23c0,1.06,0.67,1.96,3.13,1.96h0.45c2.46,0,3.13-0.9,3.13-1.96v-1.23H946.48z"/>
		
			<linearGradient id="SVGID_00000136389541819927235550000001717149339986242470_" gradientUnits="userSpaceOnUse" x1="757.9175" y1="415.3049" x2="1031.9534" y2="689.3408">
			<stop  offset="0.0992" style="stop-color:#002F31"/>
			<stop  offset="1" style="stop-color:#000000"/>
		</linearGradient>
		<path style="fill:url(#SVGID_00000136389541819927235550000001717149339986242470_);" d="M982.58,671.94l-6.71,3.91h-2.24v-19.01
			h4.25c1.56-0.95,2.01-3.3,2.12-6.99l1.12-21.52h34.66v28.51h5.59v15.09l-6.71,3.91h-2.24v-10.06h-29.85V671.94z M1005.72,656.85
			v-19.56h-15.32l-0.62,12.13c-0.17,2.96-0.56,5.42-1.29,7.43H1005.72z"/>
	</g>
	<g>
		
			<linearGradient id="SVGID_00000110445341864583621050000013776413746894789800_" gradientUnits="userSpaceOnUse" x1="407.0109" y1="426.8392" x2="461.1563" y2="426.8392">
			<stop  offset="0.0992" style="stop-color:#002F31"/>
			<stop  offset="1" style="stop-color:#000000"/>
		</linearGradient>
		<path style="fill:url(#SVGID_00000110445341864583621050000013776413746894789800_);" d="M461.16,417.01
			c0,1.69-1.18,3.58-3.61,5.58c-9.72,8.02-30.62,13.1-50.54,15.63c15.41-11.6,33.71-19.62,53.78-22.77
			C461.03,415.95,461.16,416.46,461.16,417.01z"/>
		
			<linearGradient id="SVGID_00000082362400238289429800000005144403572005064638_" gradientUnits="userSpaceOnUse" x1="367.3505" y1="450.962" x2="509.9955" y2="450.962">
			<stop  offset="0.0992" style="stop-color:#002F31"/>
			<stop  offset="1" style="stop-color:#000000"/>
		</linearGradient>
		<path style="fill:url(#SVGID_00000082362400238289429800000005144403572005064638_);" d="M477.61,465.43
			c-34.55,15.33-78.58,22.26-110.26,24.33c4.35-10.73,10.2-20.73,17.3-29.7c40.47-4.3,95.5-17.94,97.15-35.66
			c0.39-4.2-2.58-7.95-7.75-10.64l13.02-1.59C520.84,426.07,516.99,447.94,477.61,465.43z"/>
		
			<linearGradient id="SVGID_00000032637914157424084630000004479420844332923267_" gradientUnits="userSpaceOnUse" x1="358.4754" y1="487.3762" x2="554.7742" y2="487.3762">
			<stop  offset="0.0992" style="stop-color:#002F31"/>
			<stop  offset="1" style="stop-color:#000000"/>
		</linearGradient>
		<path style="fill:url(#SVGID_00000032637914157424084630000004479420844332923267_);" d="M359.84,553.47
			c-0.9-5.93-1.36-11.98-1.36-18.13c0-5.6,0.38-11.13,1.13-16.54c66.75-4.64,184.56-33.99,171.82-76.17
			c-3.38-11.19-15.35-18.41-20.44-21.36c0.53,0.28,1.05,0.57,1.56,0.86c8.64,5.29,14.35,8.8,24.22,17.7
			c2.67,2.65,6.27,6.16,8.81,8.94C592.88,507.24,446.51,547.76,359.84,553.47z"/>
		
			<linearGradient id="SVGID_00000175293535376298660140000017725787624945666482_" gradientUnits="userSpaceOnUse" x1="565.4761" y1="479.1819" x2="566.2451" y2="479.1819">
			<stop  offset="0.0992" style="stop-color:#002F31"/>
			<stop  offset="1" style="stop-color:#000000"/>
		</linearGradient>
		<path style="fill:url(#SVGID_00000175293535376298660140000017725787624945666482_);" d="M566.25,480.04
			c-0.26-0.58-0.52-1.16-0.77-1.71C565.75,478.89,566.03,479.5,566.25,480.04z"/>
		
			<linearGradient id="SVGID_00000180353882609548361540000016865844318141385127_" gradientUnits="userSpaceOnUse" x1="368.5103" y1="545.9843" x2="577.4581" y2="545.9843">
			<stop  offset="0.0992" style="stop-color:#002F31"/>
			<stop  offset="1" style="stop-color:#000000"/>
		</linearGradient>
		<path style="fill:url(#SVGID_00000180353882609548361540000016865844318141385127_);" d="M385.57,611.78
			c-6.88-8.5-12.64-17.95-17.06-28.09c77.71-5.52,219.85-45.61,197.86-103.36c-0.01-0.05-0.04-0.09-0.05-0.14
			c1.88,4.16,4.01,8.98,5.35,12.88c3.88,12.86,4.03,13.36,5.35,20.95l0.33,2.09C581.88,577.66,455.71,605.69,385.57,611.78z"/>
		
			<linearGradient id="SVGID_00000127044099034958752100000006208313521085321131_" gradientUnits="userSpaceOnUse" x1="406.5697" y1="600.136" x2="577.944" y2="600.136">
			<stop  offset="0.0992" style="stop-color:#002F31"/>
			<stop  offset="1" style="stop-color:#000000"/>
		</linearGradient>
		<path style="fill:url(#SVGID_00000127044099034958752100000006208313521085321131_);" d="M577.94,551.01l-1.26,8.46
			c-3,13.4-3.05,13.65-5.64,20.86c-1.21,2.98-2.72,7-4.06,9.93c-19.72,36.52-82.99,52.94-129.19,58.99
			c-11.33-4.17-21.82-9.97-31.23-17.12C468.56,626.04,568.53,602.37,577.94,551.01z"/>
		
			<linearGradient id="SVGID_00000008832386364913885200000017482785877281931921_" gradientUnits="userSpaceOnUse" x1="469.9179" y1="640.1053" x2="546.9317" y2="640.1053">
			<stop  offset="0.0992" style="stop-color:#002F31"/>
			<stop  offset="1" style="stop-color:#000000"/>
		</linearGradient>
		<path style="fill:url(#SVGID_00000008832386364913885200000017482785877281931921_);" d="M546.93,621.3
			c-3.56,3.95-7.89,8.59-11.55,11.88c-8.51,7.11-9.81,8.21-17.79,13.41l-4.69,2.82c-7.59,4.05-15.25,7.15-22.59,9.51l-20.4-2.48
			C498.51,650.48,529.91,639.42,546.93,621.3z"/>
	</g>
	<path d="M463.78,665.55c-5.27,0.65-10.63,0.98-16.07,0.98c-72.46,0-131.2-58.74-131.2-131.19c0-72.46,58.74-131.2,131.2-131.2
		c5.44,0,10.8,0.34,16.07,0.98c-64.87,7.92-115.12,63.2-115.12,130.22C348.67,602.36,398.91,657.64,463.78,665.55z"/>
	<g>
		<g>
			<path d="M713.62,574.2c0,19.63-11.06,35.69-51.03,35.69h-5c-21.59,0-44.97-1.25-65.31-3.57V486.76h114.38v28.55H624.4v17.84
				c11.6-1.78,23.91-1.78,36.76-1.78h5c37.11,0,47.46,16.06,47.46,35.69V574.2z M624.4,561.53v18.2
				c11.78,1.07,25.52,1.61,33.01,1.61c27.66,0,27.66-4.46,27.66-10.71c0-6.07,0-10.71-28.91-10.71
				C645.1,559.92,635.46,560.1,624.4,561.53z"/>
			<path d="M727.18,606.31v-7.14l53.17-112.41h32.12l53.17,112.41v7.14h-28.91l-10.35-23.2h-60.13l-10.17,23.2H727.18z
				 M814.61,556.35l-18.2-40.86l-18.2,40.86H814.61z"/>
			<path d="M902.22,566.52l3.57-79.76h108.85v119.55h-32.12v-91h-46.75l-2.32,54.78c-1.43,24.98-10.17,38.36-37.83,38.36
				c-5.35,0-11.24-0.36-15.52-1.79v-27.3c2.85,0.36,7.14,0.54,9.81,0.54C899.37,579.91,901.87,575.27,902.22,566.52z"/>
		</g>
	</g>
</g>
</svg>
